<mxfile host="app.diagrams.net" modified="2021-02-23T02:46:27.728Z" agent="5.0 (Windows NT 6.1; Win64; x64) AppleWebKit/537.36 (KHTML, like Gecko) Chrome/86.0.4240.198 Whale/2.9.114.33 Safari/537.36" etag="KyWygCGdFITBShT0VI8_" version="14.4.2" type="github">
  <diagram id="JmC3eIMD1pYlruezZd3D" name="Page-1">
    <mxGraphModel dx="700" dy="472" grid="1" gridSize="10" guides="1" tooltips="1" connect="1" arrows="1" fold="1" page="1" pageScale="1" pageWidth="827" pageHeight="1169" math="0" shadow="0">
      <root>
        <mxCell id="0" />
        <mxCell id="1" parent="0" />
        <mxCell id="8yHDehYauzTEloKv_Mf7-1" style="edgeStyle=orthogonalEdgeStyle;rounded=0;orthogonalLoop=1;jettySize=auto;html=1;" edge="1" parent="1" source="XJ5ntjSKO445xvME40Bf-1">
          <mxGeometry relative="1" as="geometry">
            <mxPoint x="420" y="340" as="targetPoint" />
          </mxGeometry>
        </mxCell>
        <mxCell id="XJ5ntjSKO445xvME40Bf-1" value="&lt;font style=&quot;font-size: 28px&quot;&gt;시작&lt;/font&gt;" style="rounded=1;whiteSpace=wrap;html=1;" parent="1" vertex="1">
          <mxGeometry x="360" y="210" width="120" height="60" as="geometry" />
        </mxCell>
        <mxCell id="XJ5ntjSKO445xvME40Bf-2" value="&lt;font style=&quot;font-size: 21px&quot;&gt;%가 있는가&lt;/font&gt;" style="rhombus;whiteSpace=wrap;html=1;" parent="1" vertex="1">
          <mxGeometry x="350" y="350" width="140" height="80" as="geometry" />
        </mxCell>
      </root>
    </mxGraphModel>
  </diagram>
</mxfile>
